<svg xmlns="http://www.w3.org/2000/svg" viewBox="0 0 58 58"><defs><style>.cls-1{fill:#fff;}.cls-2{fill:#cf145a;}</style></defs><title>Asset 13</title><g id="Layer_2" data-name="Layer 2"><g id="Layer_1-2" data-name="Layer 1"><rect class="cls-1" width="58" height="58"/><path class="cls-2" d="M10.07,51a6.6,6.6,0,0,0-6.6,6.61h13.2A6.6,6.6,0,0,0,10.07,51Z"/><path class="cls-2" d="M5.69,38.24a6.33,6.33,0,0,1,.89-.56A23.82,23.82,0,0,1,22.29,6.39a5.91,5.91,0,0,1-.12-1c0-.08,0-.17,0-.26a7,7,0,0,1,.05-.8A25.86,25.86,0,0,0,4.88,39,6.94,6.94,0,0,1,5.69,38.24Z"/><path class="cls-2" d="M44.2,48.82a6.56,6.56,0,0,1-.77-.72,23.76,23.76,0,0,1-28.93.16,5.82,5.82,0,0,1-.79.7,6.11,6.11,0,0,1-.91.58,25.81,25.81,0,0,0,32.27-.13A5.78,5.78,0,0,1,44.2,48.82Z"/><path class="cls-2" d="M35.43,6.39A23.83,23.83,0,0,1,51.2,37.53a6.18,6.18,0,0,1,.91.5,6.67,6.67,0,0,1,.84.67A25.88,25.88,0,0,0,35.51,4.29a7,7,0,0,1,.05.8c0,.09,0,.18,0,.26A5.91,5.91,0,0,1,35.43,6.39Z"/><path class="cls-2" d="M48.4,51a6.61,6.61,0,0,0-6.61,6.61H55A6.61,6.61,0,0,0,48.4,51Z"/><path class="cls-2" d="M35.47,18.3a6.62,6.62,0,0,0-5.83-6.56,6.79,6.79,0,0,0-.78,0,6.51,6.51,0,0,0-.77,0,6.61,6.61,0,0,0-5.83,6.56Z"/><circle class="cls-2" cx="28.86" cy="31.14" r="8.93"/><path class="cls-2" d="M28.86,9.74a4.65,4.65,0,0,0,4.58-3.83,4.47,4.47,0,0,0,.07-.82V4.88a4.66,4.66,0,0,0-9.3,0v.21a5.55,5.55,0,0,0,.07.82A4.65,4.65,0,0,0,28.86,9.74Z"/><path class="cls-2" d="M7.39,39.57a4.75,4.75,0,0,0-.85.62,4.39,4.39,0,0,0-.71.84,4.56,4.56,0,0,0-.78,2.57A4.66,4.66,0,0,0,9.7,48.26,4.59,4.59,0,0,0,11.09,48a4.72,4.72,0,0,0,1-.45,4.28,4.28,0,0,0,.83-.64,4.64,4.64,0,0,0-5.53-7.38Z"/><path class="cls-2" d="M51.29,40a4.52,4.52,0,0,0-.88-.56A4.65,4.65,0,0,0,45,46.78a4.25,4.25,0,0,0,.79.67,4.63,4.63,0,0,0,2.61.81,4.66,4.66,0,0,0,4.65-4.66,4.6,4.6,0,0,0-1-2.87A4.15,4.15,0,0,0,51.29,40Z"/></g></g></svg>