<svg xmlns="http://www.w3.org/2000/svg" xmlns:xlink="http://www.w3.org/1999/xlink" viewBox="0 0 58 58"><defs><style>.cls-1{fill:#fff;}.cls-2{fill:url(#radial-gradient);}.cls-3{fill:#fb78ff;}.cls-4{fill:url(#radial-gradient-2);}.cls-5{fill:url(#radial-gradient-3);}.cls-6{fill:url(#radial-gradient-4);}.cls-7{fill:url(#radial-gradient-5);}.cls-8{fill:url(#radial-gradient-6);}.cls-9{fill:url(#radial-gradient-7);}</style><radialGradient id="radial-gradient" cx="-144.31" cy="27.31" r="21.24" gradientTransform="translate(163.19) scale(0.88 1)" gradientUnits="userSpaceOnUse"><stop offset="0" stop-color="#fff"/><stop offset="0.1" stop-color="#f5cfdd"/><stop offset="0.22" stop-color="#eb9ebb"/><stop offset="0.35" stop-color="#e2739d"/><stop offset="0.47" stop-color="#db5185"/><stop offset="0.6" stop-color="#d63672"/><stop offset="0.73" stop-color="#d22365"/><stop offset="0.86" stop-color="#d0185d"/><stop offset="1" stop-color="#cf145a"/></radialGradient><radialGradient id="radial-gradient-2" cx="52.42" cy="37.77" r="4" gradientTransform="matrix(1, 0, 0, 1, 0, 0)" xlink:href="#radial-gradient"/><radialGradient id="radial-gradient-3" cx="19.98" cy="18.72" r="3.66" gradientTransform="matrix(1, 0, 0, 1, 0, 0)" xlink:href="#radial-gradient"/><radialGradient id="radial-gradient-4" cx="28.14" cy="8.07" r="3.66" gradientTransform="matrix(1, 0, 0, 1, 0, 0)" xlink:href="#radial-gradient"/><radialGradient id="radial-gradient-5" cx="36.12" cy="23.33" r="3.65" gradientTransform="matrix(1, 0, 0, 1, 0, 0)" xlink:href="#radial-gradient"/><radialGradient id="radial-gradient-6" cx="25.85" cy="50.59" r="18.66" gradientTransform="matrix(1, 0, 0, 1, 0, 0)" xlink:href="#radial-gradient"/><radialGradient id="radial-gradient-7" cx="41.35" cy="47.85" r="10.29" gradientTransform="matrix(1, 0, 0, 1, 0, 0)" xlink:href="#radial-gradient"/></defs><title>Asset 15</title><g id="Layer_2" data-name="Layer 2"><g id="Layer_1-2" data-name="Layer 1"><rect class="cls-1" width="58" height="58"/><path class="cls-2" d="M17.05,40.28V22.66a3.74,3.74,0,0,1,1.56-3.47c2-1.17,4.19.56,4.24,3,.13,5.75,0,11.53,0,17.28,0,.22,0,.44,0,.66a1.21,1.21,0,0,0,1.58,1.18c.82-.28.77-1.17.77-1.93V12.24a4.79,4.79,0,0,1,.54-2.69C27.39,7,30.91,8.38,31,11.46c.05,1.68,0,3.37,0,5.05V37.2c0,.85,0,1.71,0,2.57a3.85,3.85,0,0,0,0,.48,1.17,1.17,0,0,0,1.84.89c.71-.54.49-1.92.49-2.74V28.19c0-1.29-.1-2.58.71-3.63,1.77-2.3,5-.77,5.09,2.16,0,1.07,0,2.15,0,3.23V35.4c0,1.11-.16,2.37.47,3.31a2.16,2.16,0,0,0,2.45.9,5.52,5.52,0,0,0,1.32-.81c1.15-.81,2.29-1.62,3.44-2.41a5.78,5.78,0,0,1,7.73.81l.1-.83L43.72,45.19l-1.6,1.29c-.49.39,0,1.31.48.92l10.94-8.83,1.59-1.29a.57.57,0,0,0,.1-.83,6.62,6.62,0,0,0-7.52-1.74,23.46,23.46,0,0,0-3.83,2.49c-.54.38-1.08.78-1.63,1.14a1.33,1.33,0,0,1-2.14-.91,21.06,21.06,0,0,1,0-3.37V28.58a9.66,9.66,0,0,0-.37-3.72,3.68,3.68,0,0,0-5.11-2.07A4.59,4.59,0,0,0,32.41,27c0,3.21,0,6.42,0,9.64V38.8a4.6,4.6,0,0,1,0,1.23c-.14.4-.4.19-.47-.09a4.41,4.41,0,0,1,0-.89V11.88a5.11,5.11,0,0,0-1.06-3.41,3.55,3.55,0,0,0-5.42-.16c-1.52,1.62-1.2,4.09-1.2,6.23V39a4.82,4.82,0,0,1,0,.93c0,.23-.23.72-.47.16a3.31,3.31,0,0,1,0-.89V22.72A5.31,5.31,0,0,0,22.67,19a3.56,3.56,0,0,0-5.43,0c-1.5,1.69-1.13,4.38-1.13,6.57V40.28a.47.47,0,1,0,.94,0Z"/><path class="cls-3" d="M49.54,40.45l-1.45-2.21,8.58-3a.19.19,0,0,1,.17.34l-7.08,4.68"/><path class="cls-4" d="M49.24,40.64l-1.69-2.58,9-3.14a.54.54,0,0,1,.67.27.55.55,0,0,1-.18.71L50,40.58l-.19-.29Zm-.6-2.21,1,1.52L55.56,36Zm8.15-2.84Z"/><path class="cls-3" d="M20.42,22.88h-.89A1.73,1.73,0,0,1,17.81,21l.92-6.47h2.49L22.14,21A1.73,1.73,0,0,1,20.42,22.88Z"/><path class="cls-5" d="M20.42,23.23h-.89A2.07,2.07,0,0,1,17.46,21v0l1-6.77h3.1l1,6.79a2.1,2.1,0,0,1-.55,1.57A2.07,2.07,0,0,1,20.42,23.23Zm-2.25-2.16a1.31,1.31,0,0,0,.36,1,1.33,1.33,0,0,0,1,.44h.89a1.33,1.33,0,0,0,1-.44,1.35,1.35,0,0,0,.37-1l-.88-6.15H19Z"/><ellipse class="cls-1" cx="19.31" cy="17.93" rx="0.31" ry="1.69"/><path class="cls-3" d="M28.7,12.23H27.57A1.62,1.62,0,0,1,26,10.51l.76-6.59h2.66l.93,6.59A1.61,1.61,0,0,1,28.7,12.23Z"/><path class="cls-6" d="M28.7,12.59H27.57a2,2,0,0,1-2-2.11l.79-6.92h3.29l1,6.92a2,2,0,0,1-2,2.11ZM27,4.27l-.71,6.28a1.22,1.22,0,0,0,.33.93,1.28,1.28,0,0,0,.92.4H28.7A1.27,1.27,0,0,0,30,10.54l-.89-6.27Z"/><ellipse class="cls-1" cx="27.69" cy="7.2" rx="0.44" ry="1.69"/><path class="cls-3" d="M36.27,27.49H36a2,2,0,0,1-2-2.14l.9-6.18h2.66l.72,6.18A2,2,0,0,1,36.27,27.49Z"/><path class="cls-7" d="M36.27,27.84H36a2.36,2.36,0,0,1-2.35-2.52v0l.94-6.47h3.28l.76,6.48A2.36,2.36,0,0,1,38,27.09,2.34,2.34,0,0,1,36.27,27.84Zm-1.94-2.46a1.65,1.65,0,0,0,.44,1.23,1.6,1.6,0,0,0,1.2.52h.3a1.6,1.6,0,0,0,1.2-.52,1.63,1.63,0,0,0,.44-1.24l-.69-5.84h-2Z"/><ellipse class="cls-1" cx="35.59" cy="22.46" rx="0.35" ry="1.69"/><path class="cls-8" d="M.72,54.05a16.92,16.92,0,0,1,5.07-4.49,19.09,19.09,0,0,1,3.1-1.47,20.26,20.26,0,0,1,3.33-.91c.29,0,.57-.1.86-.13l.86-.1.86-.06.44,0h.43a23.54,23.54,0,0,1,3.46.19,27.83,27.83,0,0,1,3.39.67l.84.21.82.26.82.26.8.26c2.11.71,4.24,1.35,6.37,1.91a48.09,48.09,0,0,0,6.3,1.32c4.17.55,8.56-.45,13.05-.95l.07.23a41.65,41.65,0,0,1-6.38,2.36c-.28.08-.55.16-.84.22l-.84.19-.43.09-.43.07-.87.13a8.46,8.46,0,0,1-.88.09c-.29,0-.58.05-.88.06H38.71l-.44,0-.89-.06-.44-.05-.44-.06-.87-.14-.85-.18c-.28-.06-.57-.12-.85-.2l-.83-.23-.83-.25L31.46,53c-2.16-.75-4.25-1.58-6.34-2.4l-.78-.31L23.57,50l-.77-.28L22,49.47a26.54,26.54,0,0,0-3.16-.79,23.17,23.17,0,0,0-3.22-.37A19.9,19.9,0,0,0,9.21,49a18.54,18.54,0,0,0-3.05,1.19A18.35,18.35,0,0,0,3.36,52,14.8,14.8,0,0,0,.92,54.19Z"/><path class="cls-9" d="M27.37,46.51c.56.22,1.13.41,1.7.58s1.15.35,1.73.49a35.18,35.18,0,0,0,3.51.71,35.17,35.17,0,0,0,3.54.4c1.19.08,2.37.1,3.55.07a29.34,29.34,0,0,0,3.52-.35l.87-.14c.29,0,.58-.09.87-.14.58-.09,1.15-.2,1.73-.3,1.15-.22,2.31-.46,3.46-.75s2.29-.62,3.48-.92l.07.14a18.27,18.27,0,0,1-3.18,1.84A20.36,20.36,0,0,1,45.09,50c-1.23.07-2.46.07-3.68,0s-2.45-.14-3.66-.3-2.41-.38-3.6-.66-2.35-.63-3.49-1a25.89,25.89,0,0,1-3.36-1.4Z"/></g></g></svg>